# xmcd
#
# Track frame offsets:
# 150
# 13694
# 26028
# 41572
# 58256
# 70157
# 83368
# 96545
# 112129
# 128849
# 141310
# 155193
# 175659
# 186012
#
# Disc length: 2632 seconds
#
#
# Revision: 0
# Processed by: cddbd v1.5.2PL0 Copyright (c) Steve Scherf et al.
# Submitted via: Nero 7, 11, 10, 0 
#
DISCID=c60a460e
DTITLE=Red Shoes Rhythm 'N' Blues Quartet - Greatest Hits
DYEAR=2001
DGENRE=Blues
TTITLE0=Surf 2001
TTITLE1=Boogie Leg
TTITLE2=Swamp's Up
TTITLE3=Love Dog
TTITLE4=Groovus
TTITLE5=Moving Target
TTITLE6=Pacifica
TTITLE7=Screaming Hunger
TTITLE8=Lover's Rhumba
TTITLE9=Big Mary's
TTITLE10=Horror Hayride
TTITLE11=Powerful Stuff
TTITLE12=Rumble
TTITLE13=Lynxtail
EXTD=
EXTT0=Surf 2001
EXTT1=Boogie Leg
EXTT2=Swamp's Up
EXTT3=Love Dog
EXTT4=Groovus
EXTT5=Moving Target
EXTT6=Pacifica
EXTT7=Screaming Hunger
EXTT8=Lover's Rhumba
EXTT9=Big Mary's
EXTT10=Horror Hayride
EXTT11=Powerful Stuff
EXTT12=Rumble
EXTT13=Lynxtail
PLAYORDER=
